<svg width="167" height="40" viewBox="0 0 167 40" fill="none" xmlns="http://www.w3.org/2000/svg">
<path d="M34.1422 5.85781C30.3647 2.08031 25.3422 0 20 0C14.6578 0 9.63531 2.08031 5.85781 5.85781C2.08031 9.63531 0 14.6578 0 20C0 25.3422 2.08039 30.3646 5.85781 34.1422C9.63523 37.9198 14.6578 40 20 40C25.3422 40 30.3647 37.9197 34.1422 34.1422C37.9197 30.3647 40 25.3422 40 20C40 14.6578 37.9196 9.63539 34.1422 5.85781Z" fill="#33CC95"/>
<g clip-path="url(#clip0_100213_197)">
<path d="M20.5714 8V33.1429" stroke="white" stroke-width="2" stroke-linecap="round" stroke-linejoin="round"/>
<path d="M26.2857 12.5714H17.7143C16.6534 12.5714 15.636 12.9929 14.8859 13.743C14.1357 14.4931 13.7143 15.5106 13.7143 16.5714C13.7143 17.6323 14.1357 18.6497 14.8859 19.3999C15.636 20.15 16.6534 20.5714 17.7143 20.5714H23.4286C24.4894 20.5714 25.5069 20.9929 26.257 21.743C27.0072 22.4932 27.4286 23.5106 27.4286 24.5714C27.4286 25.6323 27.0072 26.6497 26.257 27.3999C25.5069 28.15 24.4894 28.5714 23.4286 28.5714H13.7143" stroke="white" stroke-width="2" stroke-linecap="round" stroke-linejoin="round"/>
</g>
<path d="M54.0511 27.7074V25.7386L63 12.9034H54V10.2528H66.9205V12.2216L57.9801 25.0568H66.9716V27.7074H54.0511ZM75.6904 27.9631C74.3779 27.9631 73.2444 27.6904 72.2898 27.1449C71.341 26.5938 70.6108 25.8154 70.0995 24.8097C69.5881 23.7983 69.3324 22.608 69.3324 21.2386C69.3324 19.8921 69.5881 18.7102 70.0995 17.6932C70.6165 16.6705 71.3381 15.875 72.2642 15.3068C73.1904 14.733 74.2785 14.446 75.5285 14.446C76.3353 14.446 77.0966 14.5767 77.8125 14.8381C78.5341 15.0937 79.1705 15.4915 79.7216 16.0312C80.2785 16.571 80.716 17.2585 81.0341 18.0937C81.3523 18.9233 81.5114 19.9119 81.5114 21.0597V22.0057H70.7813V19.9262H78.554C78.5483 19.3352 78.4205 18.8097 78.1705 18.3494C77.9205 17.8835 77.5711 17.517 77.1222 17.25C76.679 16.983 76.162 16.8494 75.5711 16.8494C74.9404 16.8494 74.3864 17.0028 73.9091 17.3097C73.4319 17.6108 73.0597 18.0085 72.7927 18.5028C72.5313 18.9915 72.3978 19.5284 72.3921 20.1136V21.929C72.3921 22.6904 72.5313 23.3438 72.8097 23.8892C73.0881 24.429 73.4773 24.8438 73.9773 25.1335C74.4773 25.4176 75.0625 25.5597 75.733 25.5597C76.1819 25.5597 76.5881 25.4972 76.9517 25.3722C77.3154 25.2415 77.6307 25.0512 77.8978 24.8012C78.1648 24.5512 78.3665 24.2415 78.5029 23.8722L81.3836 24.196C81.2017 24.9574 80.8552 25.6222 80.3438 26.1904C79.8381 26.7529 79.1904 27.1904 78.4006 27.5029C77.6108 27.8097 76.7074 27.9631 75.6904 27.9631ZM74.2586 12.8949L76.1677 9H79.1847L76.5682 12.8949H74.2586ZM90.0746 27.7074V14.6165H93.0235V16.8409H93.1769C93.4496 16.0909 93.9013 15.5057 94.532 15.0852C95.1627 14.6591 95.9155 14.446 96.7905 14.446C97.6769 14.446 98.424 14.6619 99.032 15.0937C99.6456 15.5199 100.077 16.1023 100.327 16.8409H100.464C100.754 16.1136 101.242 15.5341 101.93 15.1023C102.623 14.6648 103.444 14.446 104.393 14.446C105.597 14.446 106.58 14.8267 107.342 15.5881C108.103 16.3494 108.484 17.4602 108.484 18.9205V27.7074H105.39V19.3977C105.39 18.5852 105.174 17.9915 104.742 17.6165C104.31 17.2358 103.782 17.0455 103.157 17.0455C102.413 17.0455 101.83 17.2784 101.41 17.7443C100.995 18.2045 100.788 18.804 100.788 19.5426V27.7074H97.7621V19.2699C97.7621 18.5937 97.5576 18.054 97.1485 17.6506C96.7451 17.2472 96.2167 17.0455 95.5633 17.0455C95.1201 17.0455 94.7167 17.1591 94.353 17.3864C93.9894 17.608 93.6996 17.9233 93.4837 18.3324C93.2678 18.7358 93.1598 19.2074 93.1598 19.7472V27.7074H90.0746ZM117.324 27.9631C116.045 27.9631 114.937 27.6818 114 27.1193C113.062 26.5568 112.335 25.7699 111.818 24.7585C111.307 23.7472 111.051 22.5654 111.051 21.2131C111.051 19.8608 111.307 18.6761 111.818 17.6591C112.335 16.642 113.062 15.8523 114 15.2898C114.937 14.7273 116.045 14.446 117.324 14.446C118.602 14.446 119.71 14.7273 120.648 15.2898C121.585 15.8523 122.31 16.642 122.821 17.6591C123.338 18.6761 123.597 19.8608 123.597 21.2131C123.597 22.5654 123.338 23.7472 122.821 24.7585C122.31 25.7699 121.585 26.5568 120.648 27.1193C119.71 27.6818 118.602 27.9631 117.324 27.9631ZM117.341 25.4915C118.034 25.4915 118.614 25.3011 119.08 24.9205C119.545 24.5341 119.892 24.0171 120.119 23.3693C120.352 22.7216 120.469 22 120.469 21.2046C120.469 20.4034 120.352 19.679 120.119 19.0313C119.892 18.3778 119.545 17.858 119.08 17.4716C118.614 17.0852 118.034 16.892 117.341 16.892C116.631 16.892 116.04 17.0852 115.568 17.4716C115.102 17.858 114.753 18.3778 114.52 19.0313C114.293 19.679 114.179 20.4034 114.179 21.2046C114.179 22 114.293 22.7216 114.52 23.3693C114.753 24.0171 115.102 24.5341 115.568 24.9205C116.04 25.3011 116.631 25.4915 117.341 25.4915ZM129.3 20.0369V27.7074H126.215V14.6165H129.164V16.8409H129.317C129.619 16.108 130.099 15.5256 130.758 15.0937C131.423 14.6619 132.244 14.446 133.221 14.446C134.124 14.446 134.911 14.6392 135.582 15.0256C136.258 15.4119 136.781 15.9716 137.15 16.7045C137.525 17.4375 137.71 18.3267 137.704 19.3722V27.7074H134.619V19.8494C134.619 18.9744 134.391 18.2898 133.937 17.7955C133.488 17.3011 132.866 17.054 132.07 17.054C131.531 17.054 131.05 17.1733 130.63 17.4119C130.215 17.6449 129.888 17.983 129.65 18.4261C129.417 18.8693 129.3 19.4063 129.3 20.0369ZM146.636 27.9631C145.323 27.9631 144.19 27.6904 143.235 27.1449C142.286 26.5938 141.556 25.8154 141.045 24.8097C140.533 23.7983 140.278 22.608 140.278 21.2386C140.278 19.8921 140.533 18.7102 141.045 17.6932C141.562 16.6705 142.283 15.875 143.21 15.3068C144.136 14.733 145.224 14.446 146.474 14.446C147.281 14.446 148.042 14.5767 148.758 14.8381C149.479 15.0937 150.116 15.4915 150.667 16.0312C151.224 16.571 151.661 17.2585 151.979 18.0937C152.298 18.9233 152.457 19.9119 152.457 21.0597V22.0057H141.727V19.9262H149.499C149.494 19.3352 149.366 18.8097 149.116 18.3494C148.866 17.8835 148.516 17.517 148.067 17.25C147.624 16.983 147.107 16.8494 146.516 16.8494C145.886 16.8494 145.332 17.0028 144.854 17.3097C144.377 17.6108 144.005 18.0085 143.738 18.5028C143.477 18.9915 143.343 19.5284 143.337 20.1136V21.929C143.337 22.6904 143.477 23.3438 143.755 23.8892C144.033 24.429 144.423 24.8438 144.923 25.1335C145.423 25.4176 146.008 25.5597 146.678 25.5597C147.127 25.5597 147.533 25.4972 147.897 25.3722C148.261 25.2415 148.576 25.0512 148.843 24.8012C149.11 24.5512 149.312 24.2415 149.448 23.8722L152.329 24.196C152.147 24.9574 151.8 25.6222 151.289 26.1904C150.783 26.7529 150.136 27.1904 149.346 27.5029C148.556 27.8097 147.653 27.9631 146.636 27.9631ZM156.61 32.6165C156.189 32.6165 155.8 32.5824 155.442 32.5142C155.09 32.4517 154.809 32.3779 154.598 32.2926L155.314 29.8892C155.763 30.0199 156.164 30.0824 156.516 30.0767C156.868 30.071 157.178 29.9602 157.445 29.7443C157.718 29.5341 157.948 29.1818 158.135 28.6875L158.399 27.9801L153.652 14.6165H156.925L159.942 24.5029H160.078L163.104 14.6165H166.385L161.144 29.2926C160.899 29.9858 160.576 30.5796 160.172 31.0739C159.769 31.5739 159.274 31.9546 158.689 32.2159C158.11 32.483 157.417 32.6165 156.61 32.6165Z" fill="white"/>
<defs>
<clipPath id="clip0_100213_197">
<rect width="27.4286" height="27.4286" fill="white" transform="translate(6.85715 6.85714)"/>
</clipPath>
</defs>
</svg>
